<svg width="16" height="9" viewBox="0 0 16 9" fill="none" xmlns="http://www.w3.org/2000/svg">
<path d="M14.9132 2.16256L8.66325 8.41256C8.57615 8.49996 8.47266 8.56931 8.3587 8.61663C8.24475 8.66395 8.12257 8.6883 7.99918 8.6883C7.8758 8.6883 7.75362 8.66395 7.63967 8.61663C7.52571 8.56931 7.42222 8.49996 7.33512 8.41256L1.08512 2.16256C0.909002 1.98644 0.810059 1.74757 0.810059 1.4985C0.810059 1.24943 0.909002 1.01056 1.08512 0.834439C1.26124 0.658318 1.50011 0.559375 1.74918 0.559375C1.99826 0.559375 2.23713 0.658318 2.41325 0.834439L7.99997 6.42116L13.5867 0.833658C13.7628 0.657538 14.0017 0.558594 14.2507 0.558594C14.4998 0.558594 14.7387 0.657538 14.9148 0.833658C15.0909 1.00978 15.1899 1.24865 15.1899 1.49772C15.1899 1.74679 15.0909 1.98566 14.9148 2.16178L14.9132 2.16256Z" fill="white"/>
</svg>
