<svg width="22" height="18" viewBox="0 0 22 18" fill="none" xmlns="http://www.w3.org/2000/svg">
<path d="M21.476 7.01341C21.476 7.02373 21.476 7.0331 21.4694 7.04341L19.3432 16.7812C19.2777 17.1241 19.0947 17.4334 18.8257 17.6559C18.5567 17.8784 18.2185 18.0001 17.8694 18H4.1285C3.77958 17.9998 3.44162 17.8781 3.1728 17.6556C2.90398 17.4332 2.72111 17.124 2.65569 16.7812L0.529441 7.04341C0.529441 7.0331 0.524753 7.02373 0.522878 7.01341C0.464685 6.69101 0.513645 6.35842 0.662277 6.06646C0.810909 5.7745 1.05104 5.53923 1.34598 5.39659C1.64091 5.25396 1.97444 5.21181 2.29559 5.27658C2.61673 5.34135 2.90785 5.50949 3.12444 5.75529L6.281 9.15748L9.63725 1.63029C9.63741 1.62717 9.63741 1.62404 9.63725 1.62091C9.75727 1.36061 9.94935 1.14015 10.1908 0.985619C10.4322 0.831088 10.7128 0.748962 10.9994 0.748962C11.2861 0.748962 11.5667 0.831088 11.8081 0.985619C12.0495 1.14015 12.2416 1.36061 12.3616 1.62091C12.3615 1.62404 12.3615 1.62717 12.3616 1.63029L15.7179 9.15748L18.8744 5.75529C19.0915 5.51131 19.3822 5.34482 19.7025 5.28111C20.0228 5.21739 20.3551 5.25993 20.649 5.40227C20.9429 5.5446 21.1823 5.77896 21.3309 6.06974C21.4795 6.36052 21.5291 6.69185 21.4723 7.01341H21.476Z" fill="white"/>
</svg>
