<svg width="27" height="26" viewBox="0 0 27 26" fill="none" xmlns="http://www.w3.org/2000/svg">
<path d="M18.5 9V15C18.5 15.2652 18.3946 15.5196 18.2071 15.7071C18.0196 15.8946 17.7652 16 17.5 16C17.2348 16 16.9804 15.8946 16.7929 15.7071C16.6054 15.5196 16.5 15.2652 16.5 15V11.4137L10.2075 17.7075C10.1146 17.8004 10.0043 17.8741 9.8829 17.9244C9.76151 17.9747 9.6314 18.0006 9.50001 18.0006C9.36861 18.0006 9.2385 17.9747 9.11711 17.9244C8.99572 17.8741 8.88542 17.8004 8.79251 17.7075C8.6996 17.6146 8.62589 17.5043 8.57561 17.3829C8.52533 17.2615 8.49945 17.1314 8.49945 17C8.49945 16.8686 8.52533 16.7385 8.57561 16.6171C8.62589 16.4957 8.6996 16.3854 8.79251 16.2925L15.0863 10H11.5C11.2348 10 10.9804 9.89464 10.7929 9.70711C10.6054 9.51957 10.5 9.26522 10.5 9C10.5 8.73478 10.6054 8.48043 10.7929 8.29289C10.9804 8.10536 11.2348 8 11.5 8H17.5C17.7652 8 18.0196 8.10536 18.2071 8.29289C18.3946 8.48043 18.5 8.73478 18.5 9ZM26.5 13C26.5 15.5712 25.7376 18.0846 24.3091 20.2224C22.8807 22.3603 20.8503 24.0265 18.4749 25.0104C16.0995 25.9944 13.4856 26.2518 10.9638 25.7502C8.44208 25.2486 6.1257 24.0105 4.30762 22.1924C2.48953 20.3743 1.25141 18.0579 0.749797 15.5362C0.248189 13.0144 0.505633 10.4006 1.48957 8.02512C2.47351 5.64968 4.13975 3.61935 6.27759 2.1909C8.41543 0.762437 10.9288 0 13.5 0C16.9467 0.00363977 20.2512 1.37445 22.6884 3.81163C25.1256 6.24882 26.4964 9.5533 26.5 13ZM24.5 13C24.5 10.8244 23.8549 8.69767 22.6462 6.88873C21.4375 5.07979 19.7195 3.66989 17.7095 2.83733C15.6995 2.00476 13.4878 1.78692 11.354 2.21136C9.22022 2.6358 7.26021 3.68345 5.72183 5.22183C4.18345 6.7602 3.13581 8.72022 2.71137 10.854C2.28693 12.9878 2.50477 15.1995 3.33733 17.2095C4.16989 19.2195 5.57979 20.9375 7.38873 22.1462C9.19767 23.3549 11.3244 24 13.5 24C16.4164 23.9967 19.2123 22.8367 21.2745 20.7745C23.3367 18.7123 24.4967 15.9164 24.5 13Z" fill="black"/>
</svg>
