<?xml version="1.0" encoding="UTF-8"?>
<svg xmlns="http://www.w3.org/2000/svg" xmlns:xlink="http://www.w3.org/1999/xlink" width="23px" height="23px" viewBox="0 0 23 23" version="1.1">
<g id="surface1">
<path style=" stroke:none;fill-rule:nonzero;fill:rgb(95.294118%,95.686275%,96.078432%);fill-opacity:1;" d="M 0.253906 13.203125 C 0.488281 14.742188 1.03125 16.179688 1.816406 17.453125 L 21.15625 17.453125 C 21.941406 16.179688 22.484375 14.742188 22.71875 13.203125 Z M 0.253906 13.203125 "/>
<path style=" stroke:none;fill-rule:nonzero;fill:rgb(95.294118%,95.686275%,96.078432%);fill-opacity:1;" d="M 17.707031 20.992188 L 5.265625 20.992188 C 7.054688 22.164062 9.191406 22.847656 11.488281 22.847656 C 13.785156 22.847656 15.921875 22.164062 17.707031 20.992188 Z M 17.707031 20.992188 "/>
<path style=" stroke:none;fill-rule:nonzero;fill:rgb(86.274511%,18.82353%,15.294118%);fill-opacity:1;" d="M 1.816406 17.453125 C 2.695312 18.871094 3.875 20.078125 5.265625 20.992188 L 17.707031 20.992188 C 19.101562 20.078125 20.28125 18.871094 21.15625 17.453125 Z M 1.816406 17.453125 "/>
<path style=" stroke:none;fill-rule:nonzero;fill:rgb(15.686275%,22.352941%,56.862748%);fill-opacity:1;" d="M 12.65625 0.1875 C 12.273438 0.148438 11.882812 0.125 11.488281 0.125 C 5.210938 0.125 0.125 5.210938 0.125 11.488281 C 0.125 12.070312 0.171875 12.644531 0.253906 13.203125 L 12.65625 13.203125 Z M 12.65625 0.1875 "/>
<path style=" stroke:none;fill-rule:nonzero;fill:rgb(95.294118%,95.686275%,96.078432%);fill-opacity:1;" d="M 3.582031 5.957031 L 3.230469 4.878906 L 4.144531 4.210938 L 3.015625 4.210938 L 2.945312 4 C 2.585938 4.410156 2.257812 4.84375 1.957031 5.304688 L 1.746094 5.957031 L 2.664062 5.289062 Z M 3.582031 5.957031 "/>
<path style=" stroke:none;fill-rule:nonzero;fill:rgb(95.294118%,95.686275%,96.078432%);fill-opacity:1;" d="M 5.867188 2.566406 L 6.78125 3.230469 L 6.429688 2.152344 L 7.347656 1.484375 L 6.214844 1.484375 L 6.199219 1.433594 C 5.839844 1.621094 5.492188 1.828125 5.160156 2.050781 L 5.304688 2.15625 L 4.957031 3.230469 Z M 5.867188 2.566406 "/>
<path style=" stroke:none;fill-rule:nonzero;fill:rgb(95.294118%,95.686275%,96.078432%);fill-opacity:1;" d="M 2.097656 10.332031 L 1.746094 11.410156 L 2.664062 10.746094 L 3.582031 11.410156 L 3.230469 10.332031 L 4.144531 9.667969 L 3.015625 9.667969 L 2.664062 8.589844 L 2.3125 9.667969 L 1.183594 9.667969 Z M 2.097656 10.332031 "/>
<path style=" stroke:none;fill-rule:nonzero;fill:rgb(95.294118%,95.686275%,96.078432%);fill-opacity:1;" d="M 8.511719 10.332031 L 8.160156 11.410156 L 9.074219 10.746094 L 9.996094 11.410156 L 9.644531 10.332031 L 10.558594 9.667969 L 9.425781 9.667969 L 9.074219 8.589844 L 8.726562 9.667969 L 7.59375 9.667969 Z M 8.511719 10.332031 "/>
<path style=" stroke:none;fill-rule:nonzero;fill:rgb(95.294118%,95.686275%,96.078432%);fill-opacity:1;" d="M 8.511719 4.878906 L 8.160156 5.957031 L 9.074219 5.289062 L 9.996094 5.957031 L 9.644531 4.878906 L 10.558594 4.210938 L 9.425781 4.210938 L 9.074219 3.136719 L 8.726562 4.210938 L 7.59375 4.210938 Z M 8.511719 4.878906 "/>
<path style=" stroke:none;fill-rule:nonzero;fill:rgb(95.294118%,95.686275%,96.078432%);fill-opacity:1;" d="M 5.296875 7.605469 L 4.945312 8.683594 L 5.863281 8.019531 L 6.78125 8.683594 L 6.429688 7.605469 L 7.347656 6.941406 L 6.214844 6.941406 L 5.863281 5.863281 L 5.515625 6.941406 L 4.382812 6.941406 Z M 5.296875 7.605469 "/>
<path style=" stroke:none;fill-rule:nonzero;fill:rgb(86.274511%,18.82353%,15.294118%);fill-opacity:1;" d="M 22.699219 9.660156 L 12.65625 9.660156 L 12.65625 13.203125 L 22.71875 13.203125 C 22.804688 12.644531 22.847656 12.070312 22.847656 11.488281 C 22.847656 10.867188 22.796875 10.257812 22.699219 9.660156 Z M 22.699219 9.660156 "/>
<path style=" stroke:none;fill-rule:nonzero;fill:rgb(95.294118%,95.686275%,96.078432%);fill-opacity:1;" d="M 12.65625 9.660156 L 22.699219 9.660156 C 22.449219 8.117188 21.890625 6.679688 21.085938 5.414062 L 12.65625 5.414062 Z M 12.65625 9.660156 "/>
<path style=" stroke:none;fill-rule:nonzero;fill:rgb(86.274511%,18.82353%,15.294118%);fill-opacity:1;" d="M 12.65625 5.414062 L 21.085938 5.414062 C 20.179688 3.984375 18.964844 2.773438 17.535156 1.871094 L 12.65625 1.871094 Z M 12.65625 5.414062 "/>
<path style=" stroke:none;fill-rule:nonzero;fill:rgb(95.294118%,95.686275%,96.078432%);fill-opacity:1;" d="M 12.65625 0.1875 L 12.65625 1.871094 L 17.535156 1.871094 C 16.09375 0.964844 14.4375 0.371094 12.65625 0.1875 Z M 12.65625 0.1875 "/>
</g>
</svg>
