<svg width="24" height="25" viewBox="0 0 24 25" fill="none" xmlns="http://www.w3.org/2000/svg">
<g clip-path="url(#clip0_2027_139)">
<path d="M12.0594 24.4403C18.6539 24.4403 23.9997 19.0944 23.9997 12.5C23.9997 5.90555 18.6539 0.559692 12.0594 0.559692C5.46499 0.559692 0.119141 5.90555 0.119141 12.5C0.119141 19.0944 5.46499 24.4403 12.0594 24.4403Z" fill="#F0F0F0"/>
<path d="M23.2571 16.6531C23.737 15.3596 23.9997 13.9605 23.9997 12.5C23.9997 11.0394 23.737 9.64038 23.2571 8.34686H0.861818C0.381874 9.64038 0.119141 11.0394 0.119141 12.5C0.119141 13.9605 0.381874 15.3596 0.861818 16.6531L12.0594 17.6914L23.2571 16.6531Z" fill="#0052B4"/>
<path d="M12.0594 24.4403C17.1933 24.4403 21.57 21.2 23.2571 16.6531H0.861816C2.5489 21.2 6.92553 24.4403 12.0594 24.4403Z" fill="#D80027"/>
</g>
<defs>
<clipPath id="clip0_2027_139">
<rect width="23.8806" height="23.8806" fill="white" transform="translate(0.119141 0.559692)"/>
</clipPath>
</defs>
</svg>
