<svg width="16" height="12" viewBox="0 0 16 12" fill="none" xmlns="http://www.w3.org/2000/svg">
<path d="M1.83882 11.4318C1.50058 11.4318 1.20704 11.3074 0.958211 11.0586C0.709378 10.8098 0.584961 10.5162 0.584961 10.1778V1.82212C0.584961 1.48377 0.709378 1.19018 0.958211 0.941344C1.20704 0.692525 1.50058 0.568115 1.83882 0.568115H14.1612C14.5133 0.568115 14.8103 0.692525 15.0522 0.941344C15.2941 1.19018 15.415 1.48377 15.415 1.82212V10.1778C15.415 10.5162 15.2941 10.8098 15.0522 11.0586C14.8103 11.3074 14.5133 11.4318 14.1612 11.4318H1.83882ZM8 6.57045L14.4159 2.7892L14.2877 1.56728L8 5.24597L1.71236 1.56728L1.58413 2.7892L8 6.57045Z" fill="#7728FF"/>
</svg>
