<svg width="18" height="15" viewBox="0 0 18 15" fill="none" xmlns="http://www.w3.org/2000/svg">
<path fill-rule="evenodd" clip-rule="evenodd" d="M1.81225 6.59866C6.28617 4.59941 9.26948 3.28139 10.7622 2.64459C15.0242 0.826381 15.9098 0.51054 16.487 0.500111C16.6139 0.497817 16.8978 0.530088 17.0817 0.683118C17.2369 0.812334 17.2797 0.986887 17.3001 1.1094C17.3205 1.23191 17.346 1.51099 17.3258 1.72906C17.0948 4.21804 16.0955 10.2581 15.587 13.0459C15.3719 14.2254 14.9483 14.6209 14.5382 14.6596C13.647 14.7438 12.9703 14.0555 12.1071 13.4752C10.7563 12.5671 9.99327 12.0017 8.68216 11.1156C7.16695 10.0914 8.1492 9.52854 9.01271 8.60864C9.2387 8.3679 13.1654 4.70456 13.2414 4.37223C13.2509 4.33067 13.2598 4.17574 13.17 4.09394C13.0803 4.01213 12.9479 4.04011 12.8523 4.06236C12.7168 4.09389 10.559 5.55672 6.37889 8.45084C5.76641 8.88222 5.21164 9.0924 4.71459 9.08138C4.16663 9.06924 3.11257 8.7636 2.32898 8.50235C1.36789 8.18192 0.604026 8.0125 0.670542 7.46831C0.705187 7.18486 1.08576 6.89498 1.81225 6.59866Z" fill="#7728FF"/>
</svg>
