<svg width="50" height="50" viewBox="0 0 50 50" fill="none" xmlns="http://www.w3.org/2000/svg">
<path d="M25 0.625C20.1791 0.625 15.4664 2.05457 11.458 4.73293C7.44954 7.41129 4.32533 11.2181 2.48045 15.6721C0.635561 20.126 0.152855 25.027 1.09337 29.7553C2.03388 34.4836 4.35538 38.8268 7.76428 42.2357C11.1732 45.6446 15.5164 47.9661 20.2447 48.9066C24.973 49.8472 29.874 49.3644 34.3279 47.5196C38.7819 45.6747 42.5887 42.5505 45.2671 38.542C47.9454 34.5336 49.375 29.8209 49.375 25C49.3682 18.5374 46.7979 12.3415 42.2282 7.77181C37.6585 3.20209 31.4626 0.631825 25 0.625ZM33.8266 24.4516C33.6524 24.6259 33.4456 24.7642 33.218 24.8585C32.9904 24.9529 32.7464 25.0015 32.5 25.0015C32.2536 25.0015 32.0096 24.9529 31.782 24.8585C31.5544 24.7642 31.3476 24.6259 31.1734 24.4516L26.875 20.1508V34.375C26.875 34.8723 26.6775 35.3492 26.3258 35.7008C25.9742 36.0525 25.4973 36.25 25 36.25C24.5027 36.25 24.0258 36.0525 23.6742 35.7008C23.3226 35.3492 23.125 34.8723 23.125 34.375V20.1508L18.8266 24.4516C18.4747 24.8034 17.9976 25.001 17.5 25.001C17.0025 25.001 16.5253 24.8034 16.1734 24.4516C15.8216 24.0997 15.624 23.6226 15.624 23.125C15.624 22.6274 15.8216 22.1503 16.1734 21.7984L23.6734 14.2984C23.8476 14.1241 24.0544 13.9858 24.282 13.8915C24.5096 13.7971 24.7536 13.7485 25 13.7485C25.2464 13.7485 25.4904 13.7971 25.718 13.8915C25.9456 13.9858 26.1524 14.1241 26.3266 14.2984L33.8266 21.7984C34.0009 21.9726 34.1392 22.1794 34.2336 22.407C34.3279 22.6346 34.3765 22.8786 34.3765 23.125C34.3765 23.3714 34.3279 23.6154 34.2336 23.843C34.1392 24.0706 34.0009 24.2774 33.8266 24.4516Z" fill="#7728FF"/>
</svg>
